<svg xmlns="http://www.w3.org/2000/svg" width="20" height="20" viewBox="0 0 20 20"><defs><style>.cls-1{fill:none;}.cls-2{fill:#fff;}</style></defs><title>Asset 3</title><g id="Layer_2" data-name="Layer 2"><g id="Layer_3" data-name="Layer 3"><rect class="cls-1" width="20" height="20"/><g id="Layer_2-2" data-name="Layer 2-2"><rect class="cls-1" width="19.98" height="19.98"/><path class="cls-2" d="M10,0A10,10,0,1,0,20,10,10,10,0,0,0,10,0Zm5.22,11.14a4.91,4.91,0,0,1-.9,2,5,5,0,0,1-1.77,1.49,5.17,5.17,0,0,1-2.44.56,5.4,5.4,0,0,1-2.73-.68,4.91,4.91,0,0,1-1.92-1.89,5.35,5.35,0,0,1-.7-2.76,5.39,5.39,0,0,1,.7-2.77,4.87,4.87,0,0,1,1.92-1.9,5.49,5.49,0,0,1,2.72-.68,5.5,5.5,0,0,1,3.07.87A4.46,4.46,0,0,1,15,7.82H12.55a2.41,2.41,0,0,0-1-1,2.86,2.86,0,0,0-1.46-.34,3.17,3.17,0,0,0-1.65.42A2.84,2.84,0,0,0,7.31,8.1a4,4,0,0,0-.4,1.8,4,4,0,0,0,.41,1.82,2.89,2.89,0,0,0,1.15,1.2,3.29,3.29,0,0,0,1.71.42,2.94,2.94,0,0,0,2-.63,3,3,0,0,0,1-1.78H9.54V9.33h5.68Z"/></g></g></g></svg>